<svg width="32" height="32" viewBox="0 0 32 32" fill="none" xmlns="http://www.w3.org/2000/svg">
<path d="M16.0001 7.99996V2.66663H10.6667M2.66675 16H5.33341M12.0001 14.6666V17.3333M20.0001 14.6666V17.3333M26.6667 16H29.3334M10.6667 24L5.33341 29.3333V10.6666C5.33341 9.95938 5.61437 9.2811 6.11446 8.78101C6.61456 8.28091 7.29284 7.99996 8.00008 7.99996H24.0001C24.7073 7.99996 25.3856 8.28091 25.8857 8.78101C26.3858 9.2811 26.6667 9.95938 26.6667 10.6666V21.3333C26.6667 22.0405 26.3858 22.7188 25.8857 23.2189C25.3856 23.719 24.7073 24 24.0001 24H10.6667Z" stroke="#08B35D" stroke-width="2" stroke-linecap="round" stroke-linejoin="round"/>
</svg>
