<svg width="32" height="32" viewBox="0 0 32 32" fill="none" xmlns="http://www.w3.org/2000/svg">
<path d="M15.9998 7.99996V2.66663H10.6665M2.6665 16H5.33317M11.9998 14.6666V17.3333M19.9998 14.6666V17.3333M26.6665 16H29.3332M10.6665 24L5.33317 29.3333V10.6666C5.33317 9.95938 5.61412 9.2811 6.11422 8.78101C6.61432 8.28091 7.29259 7.99996 7.99984 7.99996H23.9998C24.7071 7.99996 25.3854 8.28091 25.8855 8.78101C26.3856 9.2811 26.6665 9.95938 26.6665 10.6666V21.3333C26.6665 22.0405 26.3856 22.7188 25.8855 23.2189C25.3854 23.719 24.7071 24 23.9998 24H10.6665Z" stroke="white" stroke-width="2" stroke-linecap="round" stroke-linejoin="round"/>
</svg>
