<svg width="88" height="88" viewBox="0 0 88 88" fill="none" xmlns="http://www.w3.org/2000/svg">
<g filter="url(#filter0_dd_56_584)">
<path d="M4 19C4 10.1634 11.1634 3 20 3H68C76.8366 3 84 10.1634 84 19V67C84 75.8366 76.8366 83 68 83H20C11.1634 83 4 75.8366 4 67V19Z" fill="black" fill-opacity="0.2"/>
<path d="M4 19C4 10.1634 11.1634 3 20 3H68C76.8366 3 84 10.1634 84 19V67C84 75.8366 76.8366 83 68 83H20C11.1634 83 4 75.8366 4 67V19Z" fill="white"/>
<rect x="28.5" y="27.5" width="31" height="31" rx="7.5" stroke="#1976D2"/>
<path d="M40.821 50.668C39.673 50.668 38.665 50.465 37.797 50.059C36.943 49.639 36.278 49.009 35.802 48.169C35.34 47.329 35.109 46.272 35.109 44.998C35.109 43.794 35.347 42.779 35.823 41.953C36.313 41.113 36.985 40.476 37.839 40.042C38.707 39.608 39.708 39.391 40.842 39.391C41.234 39.391 41.598 39.405 41.934 39.433C42.27 39.461 42.62 39.51 42.984 39.58L43.11 42.268C42.83 42.212 42.543 42.17 42.249 42.142C41.969 42.114 41.654 42.1 41.304 42.1C40.38 42.1 39.666 42.338 39.162 42.814C38.658 43.276 38.406 43.962 38.406 44.872C38.406 45.964 38.679 46.755 39.225 47.245C39.785 47.721 40.52 47.959 41.43 47.959C41.766 47.959 42.088 47.945 42.396 47.917C42.704 47.875 42.998 47.826 43.278 47.77L43.152 50.479C42.788 50.535 42.41 50.577 42.018 50.605C41.626 50.647 41.227 50.668 40.821 50.668ZM50.1931 50.668C49.0451 50.668 48.0371 50.465 47.1691 50.059C46.3151 49.639 45.6501 49.009 45.1741 48.169C44.7121 47.329 44.4811 46.272 44.4811 44.998C44.4811 43.794 44.7191 42.779 45.1951 41.953C45.6851 41.113 46.3571 40.476 47.2111 40.042C48.0791 39.608 49.0801 39.391 50.2141 39.391C50.6061 39.391 50.9701 39.405 51.3061 39.433C51.6421 39.461 51.9921 39.51 52.3561 39.58L52.4821 42.268C52.2021 42.212 51.9151 42.17 51.6211 42.142C51.3411 42.114 51.0261 42.1 50.6761 42.1C49.7521 42.1 49.0381 42.338 48.5341 42.814C48.0301 43.276 47.7781 43.962 47.7781 44.872C47.7781 45.964 48.0511 46.755 48.5971 47.245C49.1571 47.721 49.8921 47.959 50.8021 47.959C51.1381 47.959 51.4601 47.945 51.7681 47.917C52.0761 47.875 52.3701 47.826 52.6501 47.77L52.5241 50.479C52.1601 50.535 51.7821 50.577 51.3901 50.605C50.9981 50.647 50.5991 50.668 50.1931 50.668Z" fill="#1976D2"/>
</g>
<defs>
<filter id="filter0_dd_56_584" x="0" y="0" width="88" height="88" filterUnits="userSpaceOnUse" color-interpolation-filters="sRGB">
<feFlood flood-opacity="0" result="BackgroundImageFix"/>
<feColorMatrix in="SourceAlpha" type="matrix" values="0 0 0 0 0 0 0 0 0 0 0 0 0 0 0 0 0 0 127 0" result="hardAlpha"/>
<feMorphology radius="1" operator="dilate" in="SourceAlpha" result="effect1_dropShadow_56_584"/>
<feOffset dy="1"/>
<feGaussianBlur stdDeviation="1.5"/>
<feColorMatrix type="matrix" values="0 0 0 0 0 0 0 0 0 0 0 0 0 0 0 0 0 0 0.15 0"/>
<feBlend mode="normal" in2="BackgroundImageFix" result="effect1_dropShadow_56_584"/>
<feColorMatrix in="SourceAlpha" type="matrix" values="0 0 0 0 0 0 0 0 0 0 0 0 0 0 0 0 0 0 127 0" result="hardAlpha"/>
<feOffset dy="1"/>
<feGaussianBlur stdDeviation="1"/>
<feColorMatrix type="matrix" values="0 0 0 0 0 0 0 0 0 0 0 0 0 0 0 0 0 0 0.3 0"/>
<feBlend mode="normal" in2="effect1_dropShadow_56_584" result="effect2_dropShadow_56_584"/>
<feBlend mode="normal" in="SourceGraphic" in2="effect2_dropShadow_56_584" result="shape"/>
</filter>
</defs>
</svg>
