<svg width="96" height="96" viewBox="0 0 96 96" fill="none" xmlns="http://www.w3.org/2000/svg">
<g filter="url(#filter0_d_222_424)">
<mask id="path-1-inside-1_222_424" fill="white">
<path d="M8 22C8 13.1634 15.1634 6 24 6H72C80.8366 6 88 13.1634 88 22V70C88 78.8366 80.8366 86 72 86H24C15.1634 86 8 78.8366 8 70V22Z"/>
</mask>
<path d="M8 22C8 13.1634 15.1634 6 24 6H72C80.8366 6 88 13.1634 88 22V70C88 78.8366 80.8366 86 72 86H24C15.1634 86 8 78.8366 8 70V22Z" fill="white" shape-rendering="crispEdges"/>
<path d="M8 6H88H8ZM88 70C88 83.2548 77.2548 94 64 94H32C18.7452 94 8 83.2548 8 70C8 74.4183 15.1634 78 24 78H72C80.8366 78 88 74.4183 88 70ZM8 86V6V86ZM88 6V86V6Z" fill="#EB7E2E" mask="url(#path-1-inside-1_222_424)"/>
<rect x="32.5" y="30.5" width="31" height="31" rx="7.5" stroke="#21302B"/>
<path d="M44.821 53.668C43.673 53.668 42.665 53.465 41.797 53.059C40.943 52.639 40.278 52.009 39.802 51.169C39.34 50.329 39.109 49.272 39.109 47.998C39.109 46.794 39.347 45.779 39.823 44.953C40.313 44.113 40.985 43.476 41.839 43.042C42.707 42.608 43.708 42.391 44.842 42.391C45.234 42.391 45.598 42.405 45.934 42.433C46.27 42.461 46.62 42.51 46.984 42.58L47.11 45.268C46.83 45.212 46.543 45.17 46.249 45.142C45.969 45.114 45.654 45.1 45.304 45.1C44.38 45.1 43.666 45.338 43.162 45.814C42.658 46.276 42.406 46.962 42.406 47.872C42.406 48.964 42.679 49.755 43.225 50.245C43.785 50.721 44.52 50.959 45.43 50.959C45.766 50.959 46.088 50.945 46.396 50.917C46.704 50.875 46.998 50.826 47.278 50.77L47.152 53.479C46.788 53.535 46.41 53.577 46.018 53.605C45.626 53.647 45.227 53.668 44.821 53.668ZM54.1931 53.668C53.0451 53.668 52.0371 53.465 51.1691 53.059C50.3151 52.639 49.6501 52.009 49.1741 51.169C48.7121 50.329 48.4811 49.272 48.4811 47.998C48.4811 46.794 48.7191 45.779 49.1951 44.953C49.6851 44.113 50.3571 43.476 51.2111 43.042C52.0791 42.608 53.0801 42.391 54.2141 42.391C54.6061 42.391 54.9701 42.405 55.3061 42.433C55.6421 42.461 55.9921 42.51 56.3561 42.58L56.4821 45.268C56.2021 45.212 55.9151 45.17 55.6211 45.142C55.3411 45.114 55.0261 45.1 54.6761 45.1C53.7521 45.1 53.0381 45.338 52.5341 45.814C52.0301 46.276 51.7781 46.962 51.7781 47.872C51.7781 48.964 52.0511 49.755 52.5971 50.245C53.1571 50.721 53.8921 50.959 54.8021 50.959C55.1381 50.959 55.4601 50.945 55.7681 50.917C56.0761 50.875 56.3701 50.826 56.6501 50.77L56.5241 53.479C56.1601 53.535 55.7821 53.577 55.3901 53.605C54.9981 53.647 54.5991 53.668 54.1931 53.668Z" fill="#21302B"/>
</g>
<defs>
<filter id="filter0_d_222_424" x="0" y="0" width="96" height="96" filterUnits="userSpaceOnUse" color-interpolation-filters="sRGB">
<feFlood flood-opacity="0" result="BackgroundImageFix"/>
<feColorMatrix in="SourceAlpha" type="matrix" values="0 0 0 0 0 0 0 0 0 0 0 0 0 0 0 0 0 0 127 0" result="hardAlpha"/>
<feOffset dy="2"/>
<feGaussianBlur stdDeviation="4"/>
<feComposite in2="hardAlpha" operator="out"/>
<feColorMatrix type="matrix" values="0 0 0 0 0.172549 0 0 0 0 0.372549 0 0 0 0 0.176471 0 0 0 0.06 0"/>
<feBlend mode="normal" in2="BackgroundImageFix" result="effect1_dropShadow_222_424"/>
<feBlend mode="normal" in="SourceGraphic" in2="effect1_dropShadow_222_424" result="shape"/>
</filter>
</defs>
</svg>
