<svg width="80" height="80" viewBox="0 0 80 80" fill="none" xmlns="http://www.w3.org/2000/svg">
<mask id="path-1-inside-1_2003_2412" fill="white">
<path d="M0 16C0 7.16344 7.16344 0 16 0H64C72.8366 0 80 7.16344 80 16V64C80 72.8366 72.8366 80 64 80H16C7.16344 80 0 72.8366 0 64V16Z"/>
</mask>
<path d="M0 16C0 7.16344 7.16344 0 16 0H64C72.8366 0 80 7.16344 80 16V64C80 72.8366 72.8366 80 64 80H16C7.16344 80 0 72.8366 0 64V16Z" fill="#1976D2"/>
<path d="M0 0H80H0ZM80 64C80 77.2548 69.2548 88 56 88H24C10.7452 88 0 77.2548 0 64C0 68.4183 7.16344 72 16 72H64C72.8366 72 80 68.4183 80 64ZM0 80V0V80ZM80 0V80V0Z" fill="#EB7E2E" mask="url(#path-1-inside-1_2003_2412)"/>
<path d="M33.3333 44H38.6667M44 44H46.6667M33.3333 38.6667H36M41.3333 38.6667H46.6667M30.6667 30.6667H49.3333C50.8061 30.6667 52 31.8606 52 33.3334V46.6667C52 48.1394 50.8061 49.3334 49.3333 49.3334H30.6667C29.1939 49.3334 28 48.1394 28 46.6667V33.3334C28 31.8606 29.1939 30.6667 30.6667 30.6667Z" stroke="white" stroke-width="2" stroke-linecap="round" stroke-linejoin="round"/>
</svg>
