<svg width="80" height="80" viewBox="0 0 80 80" fill="none" xmlns="http://www.w3.org/2000/svg">
<path d="M0 16C0 7.16344 7.16344 0 16 0H64C72.8366 0 80 7.16344 80 16V64C80 72.8366 72.8366 80 64 80H16C7.16344 80 0 72.8366 0 64V16Z" fill="#FAF9F7"/>
<rect x="24.5" y="24.5" width="31" height="31" rx="7.5" stroke="#1976D2"/>
<path d="M36.821 47.668C35.673 47.668 34.665 47.465 33.797 47.059C32.943 46.639 32.278 46.009 31.802 45.169C31.34 44.329 31.109 43.272 31.109 41.998C31.109 40.794 31.347 39.779 31.823 38.953C32.313 38.113 32.985 37.476 33.839 37.042C34.707 36.608 35.708 36.391 36.842 36.391C37.234 36.391 37.598 36.405 37.934 36.433C38.27 36.461 38.62 36.51 38.984 36.58L39.11 39.268C38.83 39.212 38.543 39.17 38.249 39.142C37.969 39.114 37.654 39.1 37.304 39.1C36.38 39.1 35.666 39.338 35.162 39.814C34.658 40.276 34.406 40.962 34.406 41.872C34.406 42.964 34.679 43.755 35.225 44.245C35.785 44.721 36.52 44.959 37.43 44.959C37.766 44.959 38.088 44.945 38.396 44.917C38.704 44.875 38.998 44.826 39.278 44.77L39.152 47.479C38.788 47.535 38.41 47.577 38.018 47.605C37.626 47.647 37.227 47.668 36.821 47.668ZM46.1931 47.668C45.0451 47.668 44.0371 47.465 43.1691 47.059C42.3151 46.639 41.6501 46.009 41.1741 45.169C40.7121 44.329 40.4811 43.272 40.4811 41.998C40.4811 40.794 40.7191 39.779 41.1951 38.953C41.6851 38.113 42.3571 37.476 43.2111 37.042C44.0791 36.608 45.0801 36.391 46.2141 36.391C46.6061 36.391 46.9701 36.405 47.3061 36.433C47.6421 36.461 47.9921 36.51 48.3561 36.58L48.4821 39.268C48.2021 39.212 47.9151 39.17 47.6211 39.142C47.3411 39.114 47.0261 39.1 46.6761 39.1C45.7521 39.1 45.0381 39.338 44.5341 39.814C44.0301 40.276 43.7781 40.962 43.7781 41.872C43.7781 42.964 44.0511 43.755 44.5971 44.245C45.1571 44.721 45.8921 44.959 46.8021 44.959C47.1381 44.959 47.4601 44.945 47.7681 44.917C48.0761 44.875 48.3701 44.826 48.6501 44.77L48.5241 47.479C48.1601 47.535 47.7821 47.577 47.3901 47.605C46.9981 47.647 46.5991 47.668 46.1931 47.668Z" fill="#1976D2"/>
</svg>
