<svg width="80" height="80" viewBox="0 0 80 80" fill="none" xmlns="http://www.w3.org/2000/svg">
<rect width="80" height="80" rx="40" fill="black" fill-opacity="0.2"/>
<rect width="80" height="80" rx="40" fill="#FAF9F7"/>
<path d="M38.0001 30.6667H49.3334C50.0407 30.6667 50.7189 30.9476 51.219 31.4477C51.7191 31.9478 52.0001 32.6261 52.0001 33.3334V44.6667M46.6667 38.6667H46.0001M49.3334 49.3334H30.6667C29.9595 49.3334 29.2812 49.0524 28.7811 48.5523C28.281 48.0522 28.0001 47.3739 28.0001 46.6667V33.3334C28.0001 32.6261 28.281 31.9478 28.7811 31.4477C29.2812 30.9476 29.9595 30.6667 30.6667 30.6667M26.6667 26.6667L53.3334 53.3334M33.3334 38.6667H38.6667M33.3334 44H36.6667" stroke="#F02525" stroke-width="2" stroke-linecap="round" stroke-linejoin="round"/>
</svg>
