<svg width="80" height="80" viewBox="0 0 80 80" fill="none" xmlns="http://www.w3.org/2000/svg">
<rect width="80" height="80" rx="16" fill="#B40707"/>
<path d="M53.3333 26.6667L45.3333 34.6667M45.3333 26.6667L53.3333 34.6667M53.3333 46.56V50.56C53.3348 50.9314 53.2588 51.2989 53.11 51.6392C52.9612 51.9794 52.7431 52.2848 52.4694 52.5358C52.1958 52.7869 51.8728 52.978 51.521 53.097C51.1692 53.2159 50.7965 53.2601 50.4267 53.2267C46.3238 52.7809 42.3827 51.3789 38.92 49.1334C35.6984 47.0862 32.9671 44.3549 30.92 41.1334C28.6666 37.655 27.2643 33.6947 26.8267 29.5734C26.7933 29.2047 26.8372 28.833 26.9553 28.4822C27.0735 28.1313 27.2634 27.8089 27.513 27.5355C27.7626 27.2621 28.0664 27.0436 28.4051 26.8941C28.7437 26.7445 29.1098 26.667 29.48 26.6667H33.48C34.1271 26.6603 34.7544 26.8895 35.245 27.3114C35.7356 27.7333 36.0561 28.3193 36.1467 28.96C36.3155 30.2401 36.6286 31.497 37.08 32.7067C37.2594 33.1839 37.2982 33.7026 37.1919 34.2012C37.0855 34.6998 36.8385 35.1575 36.48 35.52L34.7867 37.2134C36.6847 40.5514 39.4486 43.3153 42.7867 45.2134L44.48 43.52C44.8425 43.1615 45.3002 42.9145 45.7988 42.8082C46.2974 42.7018 46.8161 42.7406 47.2933 42.92C48.503 43.3714 49.7599 43.6845 51.04 43.8534C51.6877 43.9447 52.2792 44.271 52.702 44.77C53.1249 45.2691 53.3496 45.9061 53.3333 46.56Z" stroke="white" stroke-width="2" stroke-linecap="round" stroke-linejoin="round"/>
</svg>
