<svg width="88" height="88" viewBox="0 0 88 88" fill="none" xmlns="http://www.w3.org/2000/svg">
<g filter="url(#filter0_dd_2003_2423)">
<rect x="4" y="3" width="80" height="80" rx="16" fill="#F02525"/>
<path d="M57.3334 29.6667L49.3334 37.6667M49.3334 29.6667L57.3334 37.6667M57.3334 49.56V53.56C57.3349 53.9314 57.2589 54.2989 57.1101 54.6392C56.9613 54.9794 56.7431 55.2848 56.4695 55.5358C56.1959 55.7869 55.8728 55.978 55.5211 56.097C55.1693 56.2159 54.7966 56.2601 54.4267 56.2267C50.3239 55.7809 46.3827 54.3789 42.9201 52.1334C39.6985 50.0862 36.9672 47.3549 34.9201 44.1334C32.6667 40.655 31.2644 36.6947 30.8267 32.5734C30.7934 32.2047 30.8372 31.833 30.9554 31.4822C31.0736 31.1313 31.2635 30.8089 31.5131 30.5355C31.7627 30.2621 32.0665 30.0436 32.4051 29.8941C32.7438 29.7445 33.1099 29.667 33.4801 29.6667H37.4801C38.1271 29.6603 38.7545 29.8895 39.2451 30.3114C39.7357 30.7333 40.0562 31.3193 40.1467 31.96C40.3156 33.2401 40.6287 34.497 41.0801 35.7067C41.2595 36.1839 41.2983 36.7026 41.1919 37.2012C41.0856 37.6998 40.8386 38.1575 40.4801 38.52L38.7867 40.2134C40.6848 43.5514 43.4487 46.3153 46.7867 48.2134L48.4801 46.52C48.8426 46.1615 49.3003 45.9145 49.7989 45.8082C50.2975 45.7018 50.8162 45.7406 51.2934 45.92C52.5031 46.3714 53.76 46.6845 55.0401 46.8534C55.6878 46.9447 56.2793 47.271 56.7021 47.77C57.125 48.2691 57.3496 48.9061 57.3334 49.56Z" stroke="white" stroke-width="2" stroke-linecap="round" stroke-linejoin="round"/>
</g>
<defs>
<filter id="filter0_dd_2003_2423" x="0" y="0" width="88" height="88" filterUnits="userSpaceOnUse" color-interpolation-filters="sRGB">
<feFlood flood-opacity="0" result="BackgroundImageFix"/>
<feColorMatrix in="SourceAlpha" type="matrix" values="0 0 0 0 0 0 0 0 0 0 0 0 0 0 0 0 0 0 127 0" result="hardAlpha"/>
<feMorphology radius="1" operator="dilate" in="SourceAlpha" result="effect1_dropShadow_2003_2423"/>
<feOffset dy="1"/>
<feGaussianBlur stdDeviation="1.5"/>
<feColorMatrix type="matrix" values="0 0 0 0 0 0 0 0 0 0 0 0 0 0 0 0 0 0 0.15 0"/>
<feBlend mode="normal" in2="BackgroundImageFix" result="effect1_dropShadow_2003_2423"/>
<feColorMatrix in="SourceAlpha" type="matrix" values="0 0 0 0 0 0 0 0 0 0 0 0 0 0 0 0 0 0 127 0" result="hardAlpha"/>
<feOffset dy="1"/>
<feGaussianBlur stdDeviation="1"/>
<feColorMatrix type="matrix" values="0 0 0 0 0 0 0 0 0 0 0 0 0 0 0 0 0 0 0.3 0"/>
<feBlend mode="normal" in2="effect1_dropShadow_2003_2423" result="effect2_dropShadow_2003_2423"/>
<feBlend mode="normal" in="SourceGraphic" in2="effect2_dropShadow_2003_2423" result="shape"/>
</filter>
</defs>
</svg>
