<svg width="96" height="96" viewBox="0 0 96 96" fill="none" xmlns="http://www.w3.org/2000/svg">
<g filter="url(#filter0_d_56_140)">
<mask id="path-1-inside-1_56_140" fill="white">
<path d="M8 22C8 13.1634 15.1634 6 24 6H72C80.8366 6 88 13.1634 88 22V70C88 78.8366 80.8366 86 72 86H24C15.1634 86 8 78.8366 8 70V22Z"/>
</mask>
<path d="M8 22C8 13.1634 15.1634 6 24 6H72C80.8366 6 88 13.1634 88 22V70C88 78.8366 80.8366 86 72 86H24C15.1634 86 8 78.8366 8 70V22Z" fill="white" shape-rendering="crispEdges"/>
<path d="M8 6H88H8ZM88 70C88 83.2548 77.2548 94 64 94H32C18.7452 94 8 83.2548 8 70C8 74.4183 15.1634 78 24 78H72C80.8366 78 88 74.4183 88 70ZM8 86V6V86ZM88 6V86V6Z" fill="#EB7E2E" mask="url(#path-1-inside-1_56_140)"/>
<path d="M55 44V46C55 47.8565 54.2625 49.637 52.9497 50.9497C51.637 52.2625 49.8565 53 48 53M48 53C46.1435 53 44.363 52.2625 43.0503 50.9497C41.7375 49.637 41 47.8565 41 46V44M48 53V56M48 36C47.2044 36 46.4413 36.3161 45.8787 36.8787C45.3161 37.4413 45 38.2044 45 39V46C45 46.7956 45.3161 47.5587 45.8787 48.1213C46.4413 48.6839 47.2044 49 48 49C48.7956 49 49.5587 48.6839 50.1213 48.1213C50.6839 47.5587 51 46.7956 51 46V39C51 38.2044 50.6839 37.4413 50.1213 36.8787C49.5587 36.3161 48.7956 36 48 36Z" stroke="#21302B" stroke-width="2" stroke-linecap="round" stroke-linejoin="round"/>
</g>
<defs>
<filter id="filter0_d_56_140" x="0" y="0" width="96" height="96" filterUnits="userSpaceOnUse" color-interpolation-filters="sRGB">
<feFlood flood-opacity="0" result="BackgroundImageFix"/>
<feColorMatrix in="SourceAlpha" type="matrix" values="0 0 0 0 0 0 0 0 0 0 0 0 0 0 0 0 0 0 127 0" result="hardAlpha"/>
<feOffset dy="2"/>
<feGaussianBlur stdDeviation="4"/>
<feComposite in2="hardAlpha" operator="out"/>
<feColorMatrix type="matrix" values="0 0 0 0 0.172549 0 0 0 0 0.372549 0 0 0 0 0.176471 0 0 0 0.06 0"/>
<feBlend mode="normal" in2="BackgroundImageFix" result="effect1_dropShadow_56_140"/>
<feBlend mode="normal" in="SourceGraphic" in2="effect1_dropShadow_56_140" result="shape"/>
</filter>
</defs>
</svg>
