<svg width="46" height="46" viewBox="0 0 46 46" fill="none" xmlns="http://www.w3.org/2000/svg">
<rect x="1" y="1" width="44" height="44" rx="22" fill="white"/>
<rect x="1" y="1" width="44" height="44" rx="22" stroke="#21302B" stroke-width="2"/>
<path d="M18 31.662V30C18 29.4696 18.2107 28.9609 18.5858 28.5858C18.9609 28.2107 19.4696 28 20 28H26C26.5304 28 27.0391 28.2107 27.4142 28.5858C27.7893 28.9609 28 29.4696 28 30V31.662M33 23C33 28.5228 28.5228 33 23 33C17.4772 33 13 28.5228 13 23C13 17.4772 17.4772 13 23 13C28.5228 13 33 17.4772 33 23ZM26 21C26 22.6569 24.6569 24 23 24C21.3431 24 20 22.6569 20 21C20 19.3431 21.3431 18 23 18C24.6569 18 26 19.3431 26 21Z" stroke="#2C5F2D" stroke-width="2" stroke-linecap="round" stroke-linejoin="round"/>
</svg>
