<svg width="16" height="16" viewBox="0 0 16 16" fill="none" xmlns="http://www.w3.org/2000/svg">
<path d="M11.4004 1.30274C11.9314 1.12447 12.5069 1.13063 13.0339 1.32032C13.561 1.51008 14.0085 1.87237 14.3041 2.34831C14.5917 2.81158 14.7175 3.35582 14.6654 3.89779C14.6567 4.507 14.3936 5.02501 14.0886 5.43881C14.3569 5.54549 14.6026 5.70797 14.8047 5.92188C15.1693 6.30765 15.3653 6.82296 15.3503 7.35352C15.3352 7.88276 15.1107 8.38377 14.7266 8.74805L14.7272 8.7487L11.6758 11.6667C11.0671 12.3448 10.2191 12.6667 9.33336 12.6667H6.6667C6.40772 12.6667 6.3048 12.7497 6.26696 12.8001C6.23917 12.8372 6.20741 12.8712 6.17256 12.9017L5.64196 13.3659L5.80472 13.5287C6.06507 13.789 6.06507 14.211 5.80472 14.4714C5.54437 14.7317 5.12236 14.7317 4.86201 14.4714L0.86201 10.4714C0.601661 10.211 0.601661 9.789 0.86201 9.52865C1.12236 9.2683 1.54437 9.2683 1.80472 9.52865L2.00784 9.73178L5.24157 6.61394C5.6044 6.17041 6.14595 6.00001 6.6667 6.00001H7.67972C7.26547 5.53683 6.68018 4.85755 6.668 3.89714L6.66735 3.89779C6.66705 3.8915 6.66695 3.8852 6.6667 3.87891C6.66668 3.87484 6.6667 3.87063 6.6667 3.86654H6.66735C6.64911 3.33906 6.79573 2.81887 7.08922 2.37956C7.38861 1.93154 7.82379 1.59077 8.33076 1.40821C8.83782 1.22567 9.39061 1.21083 9.90693 1.36524C10.1697 1.44386 10.4154 1.56522 10.6368 1.72136C10.8634 1.53954 11.1211 1.39655 11.4004 1.30274ZM13.3692 6.62891C13.2142 6.62453 13.063 6.67423 12.9414 6.76824L12.8867 6.81511L11.5873 8.02149L11.1381 8.47136C11.0888 8.52063 11.0333 8.55987 10.9746 8.5905L10.0873 9.41537C10.0666 9.43453 10.0444 9.4514 10.0222 9.46745C9.65341 9.8081 9.17065 10 8.6667 10H7.33336C6.96517 10 6.6667 9.70153 6.6667 9.33334C6.6667 8.96515 6.96518 8.66667 7.33336 8.66667H8.6667C8.84351 8.66667 9.01303 8.59639 9.13805 8.47136C9.26308 8.34634 9.33336 8.17682 9.33336 8.00001C9.33336 7.8232 9.26308 7.65368 9.13805 7.52865C9.01303 7.40363 8.84351 7.33334 8.6667 7.33334H6.6667C6.40772 7.33334 6.3048 7.41637 6.26696 7.4668C6.2456 7.49528 6.22162 7.52218 6.19599 7.54688L2.9512 10.6751L4.69665 12.4206L5.25133 11.9356C5.61408 11.5008 6.15058 11.3333 6.6667 11.3333H9.33336C9.90207 11.3333 10.3756 11.1302 10.6986 10.7611L10.739 10.7181L13.806 7.78516L13.8086 7.78191C13.9373 7.66029 14.0125 7.49275 14.0176 7.31576C14.0226 7.13868 13.957 6.96665 13.8353 6.8379C13.7137 6.70926 13.5461 6.63399 13.3692 6.62891ZM12.5827 2.57488C12.3383 2.4869 12.0711 2.48378 11.8249 2.56641C11.5786 2.64914 11.3671 2.81286 11.2253 3.03061C11.1066 3.21285 10.9062 3.32542 10.6888 3.33269C10.4714 3.33991 10.2641 3.241 10.1335 3.06706C9.98114 2.86416 9.76786 2.71531 9.52477 2.64259C9.28164 2.56987 9.02136 2.57681 8.78258 2.66277C8.54383 2.74873 8.33894 2.90946 8.19795 3.12045C8.05705 3.3314 7.98745 3.58189 7.99938 3.83529C7.99987 3.8457 8.00003 3.85613 8.00003 3.86654C8.00003 4.35764 8.30234 4.6854 8.81839 5.27475L10.6595 7.06316L10.666 7.0573L12.5287 5.19532C13.0146 4.70935 13.3334 4.29058 13.3334 3.86654C13.3334 3.8413 13.3351 3.8161 13.3379 3.79102C13.3674 3.53291 13.3089 3.27216 13.1719 3.05144C13.0349 2.83077 12.8271 2.66292 12.5827 2.57488Z" fill="#21302B"/>
</svg>
