<svg width="80" height="80" viewBox="0 0 80 80" fill="none" xmlns="http://www.w3.org/2000/svg">
<rect width="80" height="80" rx="40" fill="black" fill-opacity="0.2"/>
<rect width="80" height="80" rx="40" fill="#FAF9F7"/>
<path d="M26.6667 26.6667L53.3334 53.3334M49.1867 41.64C49.283 41.0986 49.3321 40.5499 49.3334 40V37.3334M30.6667 37.3334V40C30.6396 41.8656 31.1722 43.6964 32.1959 45.2563C33.2195 46.8162 34.6871 48.0335 36.4094 48.7511C38.1316 49.4687 40.0294 49.6537 41.8577 49.2821C43.6861 48.9106 45.3612 47.9996 46.6667 46.6667M44.0001 36.4534V30.6667C43.9947 29.7685 43.6871 28.8983 43.127 28.1962C42.5668 27.4941 41.7866 27.0009 40.9121 26.7961C40.0376 26.5914 39.1196 26.6869 38.3059 27.0673C37.4923 27.4477 36.8304 28.091 36.4267 28.8934M36.0001 36V40C36.0008 40.7906 36.2357 41.5633 36.6753 42.2205C37.1149 42.8776 37.7394 43.3898 38.4698 43.6922C39.2003 43.9947 40.004 44.0739 40.7795 43.9198C41.5549 43.7658 42.2674 43.3854 42.8267 42.8267M40.0001 49.3334V53.3334" stroke="#F02525" stroke-width="2" stroke-linecap="round" stroke-linejoin="round"/>
</svg>
