<svg width="96" height="96" viewBox="0 0 96 96" fill="none" xmlns="http://www.w3.org/2000/svg">
<g filter="url(#filter0_d_2003_2401)">
<path d="M8 22C8 13.1634 15.1634 6 24 6H72C80.8366 6 88 13.1634 88 22V70C88 78.8366 80.8366 86 72 86H24C15.1634 86 8 78.8366 8 70V22Z" fill="#FAF9F7" shape-rendering="crispEdges"/>
<path d="M57.3334 43.3334V46C57.3334 48.4754 56.3501 50.8493 54.5997 52.5997C52.8494 54.35 50.4754 55.3334 48.0001 55.3334M48.0001 55.3334C45.5247 55.3334 43.1508 54.35 41.4004 52.5997C39.6501 50.8493 38.6667 48.4754 38.6667 46V43.3334M48.0001 55.3334V59.3334M48.0001 32.6667C46.9392 32.6667 45.9218 33.0881 45.1717 33.8383C44.4215 34.5884 44.0001 35.6058 44.0001 36.6667V46C44.0001 47.0609 44.4215 48.0783 45.1717 48.8284C45.9218 49.5786 46.9392 50 48.0001 50C49.0609 50 50.0784 49.5786 50.8285 48.8284C51.5787 48.0783 52.0001 47.0609 52.0001 46V36.6667C52.0001 35.6058 51.5787 34.5884 50.8285 33.8383C50.0784 33.0881 49.0609 32.6667 48.0001 32.6667Z" stroke="black" stroke-width="2" stroke-linecap="round" stroke-linejoin="round"/>
</g>
<defs>
<filter id="filter0_d_2003_2401" x="0" y="0" width="96" height="96" filterUnits="userSpaceOnUse" color-interpolation-filters="sRGB">
<feFlood flood-opacity="0" result="BackgroundImageFix"/>
<feColorMatrix in="SourceAlpha" type="matrix" values="0 0 0 0 0 0 0 0 0 0 0 0 0 0 0 0 0 0 127 0" result="hardAlpha"/>
<feOffset dy="2"/>
<feGaussianBlur stdDeviation="4"/>
<feComposite in2="hardAlpha" operator="out"/>
<feColorMatrix type="matrix" values="0 0 0 0 0.172549 0 0 0 0 0.372549 0 0 0 0 0.176471 0 0 0 0.06 0"/>
<feBlend mode="normal" in2="BackgroundImageFix" result="effect1_dropShadow_2003_2401"/>
<feBlend mode="normal" in="SourceGraphic" in2="effect1_dropShadow_2003_2401" result="shape"/>
</filter>
</defs>
</svg>
