<svg width="22" height="22" viewBox="0 0 22 22" fill="none" xmlns="http://www.w3.org/2000/svg">
<path d="M18 6.75C18 6.41848 17.8682 6.10039 17.6338 5.86597C17.3994 5.63162 17.0812 5.49976 16.7498 5.49976H4.74976C4.41844 5.49982 4.10079 5.63176 3.86646 5.86597C3.63203 6.10039 3.50024 6.41848 3.50024 6.75V18.939L6.21973 16.2195L6.27466 16.1697C6.40811 16.0604 6.57598 15.9998 6.75 15.9998H16.7498C17.0813 15.9998 17.3994 15.868 17.6338 15.6335C17.8681 15.3992 17.9999 15.0816 18 14.7502V6.75ZM6.99976 11.7502V9.75C6.99976 9.33587 7.33565 9.00013 7.74976 9C8.16397 9 8.49976 9.33579 8.49976 9.75V11.7502C8.49962 12.1643 8.16389 12.5002 7.74976 12.5002C7.33574 12.5001 6.99989 12.1643 6.99976 11.7502ZM12.9998 11.7502V9.75C12.9998 9.33587 13.3357 9.00013 13.7498 9C14.164 9 14.4998 9.33579 14.4998 9.75V11.7502C14.4996 12.1643 14.1639 12.5002 13.7498 12.5002C13.3357 12.5001 12.9999 12.1643 12.9998 11.7502ZM19.5 9.99975H20.7502C21.1643 9.99989 21.5001 10.3357 21.5002 10.7498C21.5002 11.1639 21.1643 11.4996 20.7502 11.4998H19.5V14.7502C19.4999 15.4795 19.21 16.1792 18.6943 16.6948C18.1786 17.2104 17.479 17.4998 16.7498 17.4998H7.06055L3.28052 21.2805C3.06607 21.495 2.74334 21.5591 2.46313 21.4431C2.18295 21.3271 2.00034 21.0535 2.00024 20.7502V11.4998H0.75C0.335786 11.4998 0 11.164 0 10.7498C0.00013159 10.3357 0.335868 9.99975 0.75 9.99975H2.00024V6.75C2.00024 6.02071 2.28953 5.32113 2.80518 4.80542C3.32084 4.28975 4.0205 3.99982 4.74976 3.99976H9.99976V1.5H6.75C6.33579 1.5 6 1.16421 6 0.75C6 0.335786 6.33579 0 6.75 0H10.7498C11.164 0 11.4998 0.335786 11.4998 0.75V3.99976H16.7498C17.479 3.99976 18.1786 4.28977 18.6943 4.80542C19.2101 5.32114 19.5 6.02065 19.5 6.75V9.99975Z" fill="white"/>
</svg>
